subject_03
version=1
nRows=354
nColumns=3
inDegrees=yes
endheader
time	r_shoulder_elev	r_elbow_flex
69.0100	26.780303	90.024166
69.0200	26.780303	90.090228
69.0300	26.780303	90.174677
69.0400	26.780303	90.464347
69.0500	26.780303	91.102142
69.0600	26.780303	92.117017
69.0700	26.780303	93.382992
69.0800	26.780303	94.638702
69.0900	26.780303	95.576662
69.1000	26.780303	95.975916
69.1100	26.780303	95.820702
69.1200	26.780303	95.341247
69.1300	26.780303	94.940465
69.1400	26.780303	95.023806
69.1500	26.780303	95.803697
69.1600	26.780303	97.174681
69.1700	26.780303	98.732265
69.1800	26.780303	99.943046
69.1900	26.780303	100.395928
69.2000	26.780303	100.014482
69.2100	26.780303	99.118718
69.2200	26.780303	98.292312
69.2300	26.780303	98.108167
69.2400	26.780303	98.842361
69.2500	26.780303	100.321466
69.2600	26.780303	101.988673
69.2700	26.780303	103.166413
69.2800	26.780303	103.390910
69.2900	26.780303	102.651372
69.3000	26.780303	101.408547
69.3100	26.780303	100.376033
69.3200	26.780303	100.168910
69.3300	26.780303	100.995162
69.3400	26.780303	102.547441
69.3500	26.780303	104.153012
69.3600	26.780303	105.108304
69.3700	26.780303	105.029215
69.3800	26.780303	104.039344
69.3900	26.780303	102.701166
69.4000	26.780303	101.727323
69.4100	26.780303	101.621827
69.4200	26.780303	102.435372
69.4300	26.780303	103.757351
69.4400	26.780303	104.942570
69.4500	26.780303	105.448980
69.4600	26.780303	105.108095
69.4700	26.780303	104.189873
69.4800	26.780303	103.235981
69.4900	26.780303	102.758626
69.5000	26.780303	102.970460
69.5100	26.780303	103.689113
69.5200	26.780303	104.461165
69.5300	26.780303	104.829892
69.5400	26.780303	104.594596
69.5500	26.780303	103.917759
69.5600	26.780303	103.223444
69.5700	26.780303	102.947411
69.5800	26.780303	103.281379
69.5900	26.780303	104.056056
69.6000	26.780303	104.829376
69.6100	26.780303	105.131505
69.6200	26.780303	104.731813
69.6300	26.780303	103.778857
69.6400	26.780303	102.734011
69.6500	26.780303	102.132633
69.6600	26.780303	102.300559
69.6700	26.780303	103.178111
69.6800	26.780303	104.345721
69.6900	26.780303	105.236865
69.7000	26.780303	105.424724
69.7100	26.780303	104.831972
69.7200	26.780303	103.757185
69.7300	26.780303	102.710844
69.7400	26.780303	102.153846
69.7500	26.780303	102.278161
69.7600	26.780303	102.939643
69.7700	26.780303	103.766129
69.7800	26.780303	104.369472
69.7900	26.780303	104.539949
69.8000	26.780303	104.320375
69.8100	26.780303	103.931970
69.8200	26.780303	103.613156
69.8300	26.780303	103.472320
69.8400	26.780303	103.443094
69.8500	26.780303	103.362706
69.8600	26.780303	103.115705
69.8700	26.780303	102.744532
69.8800	26.780303	102.448812
69.8900	26.780303	102.464955
69.9000	26.780303	102.895177
69.9100	26.780303	103.593531
69.9200	26.780303	104.191041
69.9300	26.780303	104.264665
69.9400	26.780303	103.568571
69.9500	26.780303	102.200980
69.9600	26.780303	100.604330
69.9700	26.780303	99.380597
69.9800	26.780303	99.003683
69.9900	26.780303	99.572098
70.0000	26.780303	100.732743
70.0100	26.780303	101.824187
70.0200	26.780303	102.177046
70.0300	26.780303	101.427547
70.0400	26.780303	99.690866
70.0500	26.780303	97.509086
70.0600	26.780303	95.599525
70.0700	26.780303	94.526328
70.0800	26.780303	94.452688
70.0900	26.780303	95.087227
70.1000	26.780303	95.840330
70.1100	26.780303	96.105364
70.1200	26.780303	95.525873
70.1300	26.780303	94.126642
70.1400	26.780303	92.261090
70.1500	26.780303	90.418399
70.1600	26.780303	88.995141
70.1700	26.780303	88.140424
70.1800	26.780303	87.734721
70.1900	26.780303	87.490858
70.2000	26.780303	87.109650
70.2100	26.780303	86.408287
70.2200	26.780303	85.367926
70.2300	26.780303	84.096927
70.2400	26.780303	82.748253
70.2500	26.780303	81.443028
70.2600	26.780303	80.235317
70.2700	26.780303	79.121271
70.2800	26.780303	78.070187
70.2900	26.780303	77.049828
70.3000	26.780303	76.032430
70.3100	26.780303	74.988024
70.3200	26.780303	73.882380
70.3300	26.780303	72.690763
70.3400	26.780303	71.421528
70.3500	26.780303	70.129315
70.3600	26.780303	68.898843
70.3700	26.780303	67.798529
70.3800	26.780303	66.827299
70.3900	26.780303	65.890768
70.4000	26.780303	64.832756
70.4100	26.780303	63.517208
70.4200	26.780303	61.921056
70.4300	26.780303	60.182255
70.4400	26.780303	58.563064
70.4500	26.780303	57.331961
70.4600	26.780303	56.616478
70.4700	26.780303	56.305236
70.4800	26.780303	56.062154
70.4900	26.780303	55.462746
70.5000	26.780303	54.196985
70.5100	26.780303	52.240612
70.5200	26.780303	49.902534
70.5300	26.780303	47.711388
70.5400	26.780303	46.183775
70.5500	26.780303	45.579994
70.5600	26.780303	45.766247
70.5700	26.780303	46.255901
70.5800	26.780303	46.417704
70.5900	26.780303	45.757335
70.6000	26.780303	44.141342
70.6100	26.780303	41.858577
70.6200	26.780303	39.491007
70.6300	26.780303	37.655557
70.6400	26.780303	36.737383
70.6500	26.780303	36.735141
70.6600	26.780303	37.282282
70.6700	26.780303	37.824633
70.6800	26.780303	37.865025
70.6900	26.780303	37.162402
70.7000	26.780303	35.803341
70.7100	26.780303	34.129142
70.7200	26.780303	32.567567
70.7300	26.780303	31.453880
70.7400	26.780303	30.918079
70.7500	26.780303	30.873684
70.7600	26.780303	31.092796
70.7700	26.780303	31.317842
70.7800	26.780303	31.355879
70.7900	26.780303	31.122772
70.8000	26.780303	30.635941
70.8100	26.780303	29.977478
70.8200	26.780303	29.254572
70.8300	26.780303	28.573344
70.8400	26.780303	28.026209
70.8500	26.780303	27.683254
70.8600	26.780303	27.579694
70.8700	26.780303	27.700983
70.8800	26.780303	27.975717
70.8900	26.780303	28.287088
70.9000	26.780303	28.505011
70.9100	26.780303	28.528904
70.9200	26.780303	28.323371
70.9300	26.780303	27.931055
70.9400	26.780303	27.457458
70.9500	26.780303	27.035220
70.9600	26.780303	26.782915
70.9700	26.780303	26.772417
70.9800	26.780303	27.011757
70.9900	26.780303	27.443001
71.0000	26.780303	27.952328
71.0100	26.780303	28.392373
71.0200	26.780303	28.615750
71.0300	26.780303	28.520002
71.0400	26.780303	28.095424
71.0500	26.780303	27.453981
71.0600	26.780303	26.815818
71.0700	26.780303	26.442256
71.0800	26.780303	26.529887
71.0900	26.780303	27.107710
71.1000	26.780303	27.990935
71.1100	26.780303	28.829137
71.1200	26.780303	29.244859
71.1300	26.780303	29.009494
71.1400	26.780303	28.173138
71.1500	26.780303	27.074708
71.1600	26.780303	26.209801
71.1700	26.780303	26.004994
71.1800	26.780303	26.602431
71.1900	26.780303	27.765617
71.2000	26.780303	28.966601
71.2100	26.780303	29.626810
71.2200	26.780303	29.400681
71.2300	26.780303	28.361745
71.2400	26.780303	26.989403
71.2500	26.780303	25.950401
71.2600	26.780303	25.774577
71.2700	26.780303	26.584555
71.2800	26.780303	28.019559
71.2900	26.780303	29.400267
71.3000	26.780303	30.059763
71.3100	26.780303	29.677616
71.3200	26.780303	28.447333
71.3300	26.780303	26.988168
71.3400	26.780303	26.041276
71.3500	26.780303	26.101385
71.3600	26.780303	27.170353
71.3700	26.780303	28.758326
71.3800	26.780303	30.132090
71.3900	26.780303	30.683516
71.4000	26.780303	30.229772
71.4100	26.780303	29.093388
71.4200	26.780303	27.925184
71.4300	26.780303	27.366157
71.4400	26.780303	27.725877
71.4500	26.780303	28.842448
71.4600	26.780303	30.190469
71.4700	26.780303	31.171896
71.4800	26.780303	31.430561
71.4900	26.780303	31.023560
71.5000	26.780303	30.364267
71.5100	26.780303	29.976746
71.5200	26.780303	30.201768
71.5300	26.780303	31.016681
71.5400	26.780303	32.064630
71.5500	26.780303	32.871032
71.5600	26.780303	33.122106
71.5700	26.780303	32.847785
71.5800	26.780303	32.406664
71.5900	26.780303	32.282035
71.6000	26.780303	32.803716
71.6100	26.780303	33.951814
71.6200	26.780303	35.353415
71.6300	26.780303	36.476677
71.6400	26.780303	36.917842
71.6500	26.780303	36.625108
71.6600	26.780303	35.937098
71.6700	26.780303	35.413872
71.6800	26.780303	35.550078
71.6900	26.780303	36.522257
71.7000	26.780303	38.102423
71.7100	26.780303	39.779853
71.7200	26.780303	41.022469
71.7300	26.780303	41.538149
71.7400	26.780303	41.401692
71.7500	26.780303	40.989727
71.7600	26.780303	40.769620
71.7700	26.780303	41.062502
71.7800	26.780303	41.905924
71.7900	26.780303	43.078927
71.8000	26.780303	44.259194
71.8100	26.780303	45.211742
71.8200	26.780303	45.899372
71.8300	26.780303	46.459189
71.8400	26.780303	47.072823
71.8500	26.780303	47.821030
71.8600	26.780303	48.619347
71.8700	26.780303	49.278042
71.8800	26.780303	49.649329
71.8900	26.780303	49.766251
71.9000	26.780303	49.876856
71.9100	26.780303	50.336612
71.9200	26.780303	51.408062
71.9300	26.780303	53.079255
71.9400	26.780303	55.013128
71.9500	26.780303	56.674710
71.9600	26.780303	57.585620
71.9700	26.780303	57.579288
71.9800	26.780303	56.919539
71.9900	26.780303	56.208845
72.0000	26.780303	56.119274
72.0100	26.780303	57.073248
72.0200	26.780303	59.032194
72.0300	26.780303	61.501204
72.0400	26.780303	63.751651
72.0500	26.780303	65.155513
72.0600	26.780303	65.470373
72.0700	26.780303	64.939940
72.0800	26.780303	64.167283
72.0900	26.780303	63.828705
72.1000	26.780303	64.369617
72.1100	26.780303	65.824880
72.1200	26.780303	67.838066
72.1300	26.780303	69.854558
72.1400	26.780303	71.383522
72.1500	26.780303	72.201407
72.1600	26.780303	72.410720
72.1700	26.780303	72.346095
72.1800	26.780303	72.392593
72.1900	26.780303	72.813237
72.2000	26.780303	73.663139
72.2100	26.780303	74.813155
72.2200	26.780303	76.049257
72.2300	26.780303	77.184108
72.2400	26.780303	78.125481
72.2500	26.780303	78.881078
72.2600	26.780303	79.517178
72.2700	26.780303	80.107808
72.2800	26.780303	80.704709
72.2900	26.780303	81.335416
72.3000	26.780303	82.015382
72.3100	26.780303	82.754178
72.3200	26.780303	83.547243
72.3300	26.780303	84.362534
72.3400	26.780303	85.140838
72.3500	26.780303	85.821039
72.3600	26.780303	86.381651
72.3700	26.780303	86.871881
72.3800	26.780303	87.404088
72.3900	26.780303	88.099399
72.4000	26.780303	89.009297
72.4100	26.780303	90.058694
72.4200	26.780303	91.053266
72.4300	26.780303	91.762637
72.4400	26.780303	92.046263
72.4500	26.780303	91.956227
72.4600	26.780303	91.752417
72.4700	26.780303	91.805074
72.4800	26.780303	92.419618
72.4900	26.780303	93.667056
72.5000	26.780303	95.311604
72.5100	26.780303	96.886153
72.5200	26.780303	97.893661
72.5300	26.780303	98.044723
72.5400	26.780303	97.415108
